<svg version="1.1" id="Layer_1" xmlns="http://www.w3.org/2000/svg" xmlns:xlink="http://www.w3.org/1999/xlink" x="0px" y="0px"
	 width="100%" viewBox="0 0 100 100" enable-background="new 0 0 100 100" xml:space="preserve">
<path fill="#000000" opacity="1.000000" stroke="none" 
	d="
M63.000000,101.000000 
	C42.000004,101.000000 21.500008,101.000000 1.000008,101.000000 
	C1.000005,67.666679 1.000005,34.333351 1.000003,1.000022 
	C34.333317,1.000014 67.666634,1.000014 100.999969,1.000007 
	C100.999977,34.333313 100.999977,67.666626 100.999985,100.999969 
	C88.500000,101.000000 76.000000,101.000000 63.000000,101.000000 
M14.998531,63.498985 
	C14.998923,68.329613 15.216241,73.173004 14.932970,77.986938 
	C14.694491,82.039665 16.338726,83.296577 20.178499,83.055405 
	C24.160582,82.805290 28.196091,82.716858 32.161774,83.073822 
	C36.829960,83.494019 38.250652,81.767075 38.098297,77.142838 
	C37.777531,67.407074 38.000797,57.653389 38.000797,47.907059 
	C44.060009,53.937721 49.255058,60.217010 53.899170,66.880287 
	C60.759022,76.722664 67.237885,86.817307 81.875107,83.009537 
	C82.187439,82.928291 82.541115,82.970757 82.871582,82.999901 
	C85.840584,83.261772 87.045692,81.976852 87.033409,78.940300 
	C86.957916,60.284203 86.956291,41.627483 87.033875,22.971407 
	C87.046829,19.855339 85.673973,18.886059 82.784401,18.970869 
	C78.623642,19.092987 74.438583,19.241072 70.297195,18.931929 
	C66.047173,18.614676 64.832672,20.307188 64.923279,24.394402 
	C65.153763,34.790806 64.999931,45.195728 64.999931,55.453846 
	C64.679512,55.139305 63.789536,54.450447 63.127434,53.586880 
	C57.036076,45.641914 50.830399,37.778091 44.958961,29.672634 
	C37.287891,19.082815 37.405590,18.997549 24.194143,18.998034 
	C23.028118,18.998075 21.845112,19.126865 20.699091,18.975523 
	C16.403231,18.408216 14.819961,20.043011 14.910090,24.522007 
	C15.164735,37.176582 14.998768,49.839622 14.998531,63.498985 
z"/>
<path fill="#3732BF" opacity="1.000000" stroke="none" 
	d="
M14.998531,62.999157 
	C14.998768,49.839622 15.164735,37.176582 14.910090,24.522007 
	C14.819961,20.043011 16.403231,18.408216 20.699091,18.975523 
	C21.845112,19.126865 23.028118,18.998075 24.194143,18.998034 
	C37.405590,18.997549 37.287891,19.082815 44.958961,29.672634 
	C50.830399,37.778091 57.036076,45.641914 63.127434,53.586880 
	C63.789536,54.450447 64.679512,55.139305 64.999931,55.453846 
	C64.999931,45.195728 65.153763,34.790806 64.923279,24.394402 
	C64.832672,20.307188 66.047173,18.614676 70.297195,18.931929 
	C74.438583,19.241072 78.623642,19.092987 82.784401,18.970869 
	C85.673973,18.886059 87.046829,19.855339 87.033875,22.971407 
	C86.956291,41.627483 86.957916,60.284203 87.033409,78.940300 
	C87.045692,81.976852 85.840584,83.261772 82.871582,82.999901 
	C82.541115,82.970757 82.187439,82.928291 81.875107,83.009537 
	C67.237885,86.817307 60.759022,76.722664 53.899170,66.880287 
	C49.255058,60.217010 44.060009,53.937721 38.000797,47.907059 
	C38.000797,57.653389 37.777531,67.407074 38.098297,77.142838 
	C38.250652,81.767075 36.829960,83.494019 32.161774,83.073822 
	C28.196091,82.716858 24.160582,82.805290 20.178499,83.055405 
	C16.338726,83.296577 14.694491,82.039665 14.932970,77.986938 
	C15.216241,73.173004 14.998923,68.329613 14.998531,62.999157 
M55.875305,59.687565 
	C56.128716,57.883324 56.382130,56.079082 56.650345,54.169434 
	C55.219391,54.473442 54.144257,54.701859 53.011059,54.178089 
	C52.991516,52.444412 53.188953,49.237206 52.919960,49.197598 
	C48.737125,48.581673 49.643425,44.440086 47.879219,42.239223 
	C43.876232,37.245476 40.414146,31.800961 36.218624,26.987291 
	C34.564247,25.089170 31.541903,24.383345 28.329170,22.711329 
	C28.537134,25.839874 28.634956,27.311493 28.739777,28.888391 
	C24.527367,29.457129 25.719549,21.030798 20.212349,24.736652 
	C20.212349,26.523790 20.212349,28.477587 20.212349,30.247856 
	C21.865898,30.605099 23.434433,30.943974 25.619207,31.415985 
	C23.041950,33.493824 21.311016,34.889343 18.786264,36.924850 
	C21.746996,37.191475 23.311434,37.332355 24.875872,37.473236 
	C25.178484,37.814564 25.481096,38.155888 25.783707,38.497211 
	C20.119469,40.145363 18.989101,43.775448 20.256319,48.305714 
	C21.532652,48.707920 22.812183,49.111137 24.747496,49.721004 
	C22.604689,51.532513 21.303596,52.632442 19.679581,54.005367 
	C21.446043,54.128185 22.630005,54.210503 23.813965,54.292816 
	C24.309099,54.554569 24.804235,54.816322 25.299370,55.078075 
	C18.558603,58.810871 19.851244,64.447807 20.215775,70.232079 
	C21.346817,70.232079 22.517727,70.232079 24.156742,70.232079 
	C24.156742,73.047081 24.156742,75.489487 24.156742,78.583717 
	C25.900480,76.704842 27.284601,75.213455 29.397364,72.936958 
	C29.650831,75.371529 29.782385,76.635094 29.982773,78.559830 
	C31.226437,77.796722 32.842762,77.195091 32.797176,76.772888 
	C32.313282,72.291161 31.557373,67.839127 30.894266,63.376251 
	C30.662691,61.817699 30.480705,60.251774 30.276075,58.689217 
	C30.723497,58.612694 31.170919,58.536171 31.618341,58.459652 
	C30.826593,57.363129 30.034845,56.266605 29.976595,56.185932 
	C31.264208,54.254471 33.003105,52.546947 32.681850,51.952187 
	C31.852812,50.417313 30.113302,49.374214 28.047997,47.513519 
	C30.377136,46.918110 31.617632,46.600998 32.998783,46.247929 
	C32.998783,44.862247 32.773598,43.484402 33.049866,42.215759 
	C33.500534,40.146255 34.278366,38.147995 34.918152,36.119675 
	C36.626442,37.467663 38.620708,38.575821 39.989799,40.208282 
	C44.221096,45.253532 48.214108,50.498623 52.690460,56.188972 
	C53.653988,57.635128 54.617519,59.081280 55.955055,61.076065 
	C59.815044,65.938927 63.675034,70.801788 67.615883,75.766518 
	C68.708076,74.420876 69.703178,73.194855 71.243599,71.296974 
	C73.080177,73.667450 74.624886,75.661209 76.022598,77.465248 
	C77.728088,76.809311 79.584984,76.095154 82.415710,75.006454 
	C81.391167,73.076157 79.930496,70.324173 78.559059,67.740318 
	C79.599815,66.998100 81.750160,66.203506 81.786873,65.320984 
	C82.069557,58.524719 81.942421,51.711411 81.942421,44.957317 
	C80.520287,44.804333 79.316170,44.674805 77.148605,44.441635 
	C79.081085,41.795803 80.544617,39.792030 82.068871,37.705116 
	C80.510124,37.117340 79.279289,36.653217 77.261086,35.892193 
	C83.256920,33.018284 82.297066,28.684889 81.575531,24.456482 
	C77.574150,24.456482 73.919044,24.456482 68.749443,24.456482 
	C72.113731,26.399876 74.215401,27.613914 76.317078,28.827953 
	C75.755318,29.474957 75.193558,30.121958 74.631798,30.768961 
	C73.176529,30.646769 71.721252,30.524576 69.758781,30.359795 
	C70.192398,36.339928 70.198044,41.982189 71.121735,47.469929 
	C71.921043,52.218727 73.762459,56.792122 75.146820,61.455109 
	C73.449036,61.927315 72.255920,62.259155 72.071198,62.310532 
	C71.073936,64.742165 70.422638,66.330208 69.771347,67.918251 
	C68.296509,66.908844 66.596313,66.112480 65.396362,64.843201 
	C63.264713,62.588394 61.436310,60.046902 59.759945,57.970753 
	C58.233665,58.903122 56.891602,59.722954 55.875305,59.687565 
z"/>
<path fill="#000000" opacity="1.000000" stroke="none" 
	d="
M52.299648,55.666115 
	C48.214108,50.498623 44.221096,45.253532 39.989799,40.208282 
	C38.620708,38.575821 36.626442,37.467663 34.918152,36.119675 
	C34.278366,38.147995 33.500534,40.146255 33.049866,42.215759 
	C32.773598,43.484402 32.998783,44.862247 32.998783,46.247929 
	C31.617632,46.600998 30.377136,46.918110 28.047997,47.513519 
	C30.113302,49.374214 31.852812,50.417313 32.681850,51.952187 
	C33.003105,52.546947 31.264208,54.254471 29.976595,56.185932 
	C30.034845,56.266605 30.826593,57.363129 31.618341,58.459652 
	C31.170919,58.536171 30.723497,58.612694 30.276075,58.689217 
	C30.480705,60.251774 30.662691,61.817699 30.894266,63.376251 
	C31.557373,67.839127 32.313282,72.291161 32.797176,76.772888 
	C32.842762,77.195091 31.226437,77.796722 29.982773,78.559830 
	C29.782385,76.635094 29.650831,75.371529 29.397364,72.936958 
	C27.284601,75.213455 25.900480,76.704842 24.156742,78.583717 
	C24.156742,75.489487 24.156742,73.047081 24.156742,70.232079 
	C22.517727,70.232079 21.346817,70.232079 20.215775,70.232079 
	C19.851244,64.447807 18.558603,58.810871 25.299370,55.078075 
	C24.804235,54.816322 24.309099,54.554569 23.813965,54.292816 
	C22.630005,54.210503 21.446043,54.128185 19.679581,54.005367 
	C21.303596,52.632442 22.604689,51.532513 24.747496,49.721004 
	C22.812183,49.111137 21.532652,48.707920 20.256319,48.305714 
	C18.989101,43.775448 20.119469,40.145363 25.783707,38.497211 
	C25.481096,38.155888 25.178484,37.814564 24.875872,37.473236 
	C23.311434,37.332355 21.746996,37.191475 18.786264,36.924850 
	C21.311016,34.889343 23.041950,33.493824 25.619207,31.415985 
	C23.434433,30.943974 21.865898,30.605099 20.212349,30.247856 
	C20.212349,28.477587 20.212349,26.523790 20.212349,24.736652 
	C25.719549,21.030798 24.527367,29.457129 28.739777,28.888391 
	C28.634956,27.311493 28.537134,25.839874 28.329170,22.711329 
	C31.541903,24.383345 34.564247,25.089170 36.218624,26.987291 
	C40.414146,31.800961 43.876232,37.245476 47.879219,42.239223 
	C49.643425,44.440086 48.737125,48.581673 52.919960,49.197598 
	C53.188953,49.237206 52.991516,52.444412 52.847702,54.738117 
	C52.556107,55.420803 52.427876,55.543461 52.299648,55.666115 
z"/>
<path fill="#000000" opacity="1.000000" stroke="none" 
	d="
M55.549538,60.542789 
	C56.891602,59.722954 58.233665,58.903122 59.759945,57.970753 
	C61.436310,60.046902 63.264713,62.588394 65.396362,64.843201 
	C66.596313,66.112480 68.296509,66.908844 69.771347,67.918251 
	C70.422638,66.330208 71.073936,64.742165 72.071198,62.310532 
	C72.255920,62.259155 73.449036,61.927315 75.146820,61.455109 
	C73.762459,56.792122 71.921043,52.218727 71.121735,47.469929 
	C70.198044,41.982189 70.192398,36.339928 69.758781,30.359795 
	C71.721252,30.524576 73.176529,30.646769 74.631798,30.768961 
	C75.193558,30.121958 75.755318,29.474957 76.317078,28.827953 
	C74.215401,27.613914 72.113731,26.399876 68.749443,24.456482 
	C73.919044,24.456482 77.574150,24.456482 81.575531,24.456482 
	C82.297066,28.684889 83.256920,33.018284 77.261086,35.892193 
	C79.279289,36.653217 80.510124,37.117340 82.068871,37.705116 
	C80.544617,39.792030 79.081085,41.795803 77.148605,44.441635 
	C79.316170,44.674805 80.520287,44.804333 81.942421,44.957317 
	C81.942421,51.711411 82.069557,58.524719 81.786873,65.320984 
	C81.750160,66.203506 79.599815,66.998100 78.559059,67.740318 
	C79.930496,70.324173 81.391167,73.076157 82.415710,75.006454 
	C79.584984,76.095154 77.728088,76.809311 76.022598,77.465248 
	C74.624886,75.661209 73.080177,73.667450 71.243599,71.296974 
	C69.703178,73.194855 68.708076,74.420876 67.615883,75.766518 
	C63.675034,70.801788 59.815044,65.938927 55.768566,60.788338 
	C55.582077,60.500610 55.549538,60.542789 55.549538,60.542789 
z"/>
<path fill="#000000" opacity="1.000000" stroke="none" 
	d="
M52.876732,55.114208 
	C54.144257,54.701859 55.219391,54.473442 56.650345,54.169434 
	C56.382130,56.079082 56.128716,57.883324 55.712421,60.115177 
	C55.549538,60.542789 55.582077,60.500610 55.581566,60.514023 
	C54.617519,59.081280 53.653988,57.635128 52.495056,55.927544 
	C52.427876,55.543461 52.556107,55.420803 52.876732,55.114208 
z"/>
</svg>